<svg width="100%" viewBox="0 0 100 100" fill="none" xmlns="http://www.w3.org/2000/svg">
<g clip-path="url(#clip0_1_2)">
<path d="M100 0H0V100H100V0Z" fill="#E33B26"/>
<path d="M50.402 91V63.3636H61.3054C63.3925 63.3636 65.1738 63.737 66.6491 64.4837C68.1335 65.2214 69.2625 66.2694 70.0362 67.6278C70.8189 68.9773 71.2102 70.5651 71.2102 72.3913C71.2102 74.2266 70.8144 75.8054 70.0227 77.1278C69.2311 78.4413 68.084 79.4489 66.5817 80.1506C65.0883 80.8523 63.2801 81.2031 61.157 81.2031H53.8565V76.5071H60.2124C61.3279 76.5071 62.2545 76.3542 62.9922 76.0483C63.7299 75.7424 64.2786 75.2836 64.6385 74.6719C65.0073 74.0601 65.1918 73.3 65.1918 72.3913C65.1918 71.4737 65.0073 70.7 64.6385 70.0703C64.2786 69.4406 63.7254 68.9638 62.9787 68.6399C62.241 68.3071 61.3099 68.1406 60.1854 68.1406H56.245V91H50.402ZM65.3267 78.4233L72.1953 91H65.745L59.0249 78.4233H65.3267ZM75.3395 91V63.3636H93.9616V68.1811H81.1825V74.7663H93.0036V79.5838H81.1825V86.1825H94.0156V91H75.3395Z" fill="black"/>
</g>
<defs>
<clipPath id="clip0_1_2">
<rect width="100" height="100" fill="white"/>
</clipPath>
</defs>
</svg>
